<svg width="500" height="79" viewBox="0 0 500 79" fill="none" xmlns="http://www.w3.org/2000/svg">
<path d="M45.6266 0.0234501V14.5389H14.148V31.9397H45.6266V46.0751H14.148V63.4711H45.6266V77.9866H0V0.0187683H45.6266V0.0234501Z" fill="#00155C"/>
<path d="M193.481 0.0234528H207.629V49.4483C207.629 53.3985 206.897 57.1048 205.43 60.5671C203.962 64.0294 201.968 67.0461 199.439 69.6217C196.915 72.1973 193.961 74.2334 190.591 75.7394C187.216 77.2454 183.604 77.996 179.754 77.996C175.904 77.996 172.291 77.2454 168.916 75.7394C165.542 74.2334 162.602 72.1973 160.091 69.6217C157.581 67.0461 155.596 64.0294 154.128 60.5671C152.66 57.1048 151.929 53.3985 151.929 49.4483V0.0234528H166.077V49.772C166.077 51.7284 166.438 53.558 167.165 55.2657C167.888 56.9688 168.871 58.456 170.105 59.7227C171.34 60.9941 172.79 61.9886 174.449 62.7111C176.109 63.4383 177.874 63.7996 179.749 63.7996C181.624 63.7996 183.439 63.4383 185.104 62.7111C186.764 61.9886 188.213 60.9894 189.448 59.7227C190.683 58.456 191.666 56.9688 192.388 55.2657C193.111 53.5627 193.477 51.7331 193.477 49.772V0.0234528H193.481Z" fill="#00155C"/>
<path d="M215.526 0.0234528H229.674V77.9913H215.526V0.0234528Z" fill="#00155C"/>
<path d="M254.426 77.9913H239.908V0.0234528H267.728C274.478 0.0234528 280.253 2.47242 285.059 7.36565C289.97 12.2964 292.426 18.203 292.426 25.0901V26.1222C292.426 33.0093 289.97 38.9159 285.059 43.8467C280.217 48.7024 274.441 51.1325 267.728 51.1325H254.426V77.9913ZM266.297 36.6124C269.333 36.6124 271.844 35.5803 273.824 33.5113C275.836 31.4799 276.846 28.9089 276.846 25.7891C276.846 22.6693 275.84 20.0092 273.824 17.7948C271.812 15.618 269.301 14.5342 266.297 14.5342H254.426V36.6077H266.297V36.6124Z" fill="#00155C"/>
<path d="M353.577 77.9913H337.997L324.165 51.3484H315.737V77.9913H301.219V0.0234528H329.094C335.876 0.0234528 341.656 2.47242 346.425 7.36565C351.194 12.2589 353.581 18.1842 353.581 25.1464V25.9064C353.581 36.4529 348.634 44.2314 338.743 49.2325L353.581 77.996L353.577 77.9913ZM327.663 36.8329C330.558 36.8329 333.068 35.7116 335.19 33.4597C337.307 31.2829 338.368 28.6228 338.368 25.4654C338.368 22.308 337.307 19.8122 335.19 17.7432C333.105 15.6414 330.599 14.5905 327.663 14.5905H315.737V36.8282H327.663V36.8329Z" fill="#00155C"/>
<path d="M395.815 77.9913C385.037 77.9913 376.011 74.1865 368.735 66.5723C361.529 58.6718 357.925 49.5562 357.925 39.2255C357.925 31.9021 359.622 25.3059 363.015 19.4368C366.266 13.4927 370.857 8.7637 376.792 5.24508C382.691 1.764 389.034 0.0234528 395.82 0.0234528C405.925 0.0234528 414.687 3.82826 422.104 11.4426C429.594 19.1976 433.339 28.4586 433.339 39.2255C433.339 49.9925 429.717 59.4693 422.474 66.9006C415.162 74.2944 406.277 77.9913 395.82 77.9913H395.815ZM395.815 64.5033C399.03 64.5033 402.006 63.8887 404.746 62.6548C407.485 61.4257 410.018 59.6101 412.35 57.2174C417.046 52.5072 419.397 46.5067 419.397 39.2208C419.397 31.935 417.046 26.2067 412.35 21.168C407.828 16.3123 402.194 13.8821 395.445 13.8821C388.695 13.8821 383.007 16.3123 378.594 21.168C374.072 25.8454 371.813 31.8599 371.813 39.2208C371.813 47.4872 374.744 54.0647 380.611 58.9579C385.028 62.6548 390.095 64.5033 395.82 64.5033H395.815Z" fill="#00155C"/>
<path d="M500 0.0234528V77.9913H485.532V46.0751H457.711V77.9913H442.873V0.0234528H457.711V31.9397H485.532V0.0234528H500Z" fill="#00155C"/>
<path d="M139.619 0H59.2168C58.7778 0 58.4257 0.365941 58.4257 0.811633V78.1884C58.4257 78.6387 58.7824 79 59.2168 79H139.619C140.058 79 140.41 78.634 140.41 78.1884V0.811633C140.41 0.36125 140.053 0 139.619 0ZM116.179 73.6376C112.567 68.8852 108.986 64.1514 105.438 59.4318C101.889 54.7121 98.3227 49.9644 94.7423 45.179H109.188L114.835 52.7324C117.364 48.9651 118.63 44.6254 118.63 39.7181C118.63 33.699 116.577 28.4586 112.471 23.9923C108.428 19.7465 103.595 17.6259 97.9798 17.6259C92.0215 17.6259 87.115 19.7465 83.2556 23.9923C79.3048 28.0786 77.3294 33.3189 77.3294 39.7181C77.3294 46.9712 79.7849 52.7183 84.6914 56.9641C88.2719 59.9432 92.3005 61.5711 96.7772 61.8573L105.388 73.023C104.244 73.2435 103.056 73.403 101.821 73.4969C100.586 73.5907 99.3059 73.6376 97.9798 73.6376C88.5325 73.6376 80.6629 70.3114 74.3662 63.6635C68.0696 56.8233 64.919 48.8431 64.919 39.7228C64.919 33.3565 66.4006 27.5953 69.3637 22.43C72.3908 17.2037 76.4148 13.0705 81.4494 10.0304C86.4794 7.02316 91.9895 5.5172 97.9798 5.5172C107.18 5.5172 114.849 8.84347 120.994 15.4913C127.478 22.172 130.716 30.2507 130.716 39.7181C130.716 48.5522 127.968 56.2181 122.476 62.7111L130.858 73.6376H116.179Z" fill="#00155C"/>
</svg>
